<svg width="1640" height="281" viewBox="0 0 1640 281" fill="none" xmlns="http://www.w3.org/2000/svg">
  <path d="M1608.08 101.947L1637.63 52.9404L1621.24 0.31543H494.481L489.207 38.7193L478.765 0.315491H216.171L207.128 36.4728H185.298L180.121 56.4691L151.133 0.315491H65.5586L0.338867 209.66L52.3088 280.944L137.774 280.944L148.23 241.395H182.748L205.894 280.944H469.701L475.984 235.075L490.585 280.944H1371.95L1407.63 207.001H1439.9L1469.87 148.346L1501.87 280.944H1590.59L1639.71 209.541L1608.08 101.947ZM846.547 151.61L846.656 126.622H922.463L923.231 151.61H846.547Z" fill="black"/>
  <path d="M59.7087 266.391L16.4097 207.001H86.2987L125.936 266.392L59.7087 266.391Z" fill="#3D3938"/>
  <path d="M342.546 207.001H272.66L302.543 266.392H368.77L342.546 207.001Z" fill="#3D3938"/>
  <path d="M365.842 207.001L390.846 266.392H457.074L435.728 207.001H365.842Z" fill="#3D3938"/>
  <path d="M575.501 207.001L589.528 266.392H744.059L738.569 207.001H575.501Z" fill="#3D3938"/>
  <path d="M924.934 207.001L920.666 266.392H766.135L761.864 207.001H924.934Z" fill="#3D3938"/>
  <path d="M948.229 207.001H1018.11L1008.97 266.392H942.742L948.229 207.001Z" fill="#3D3938"/>
  <path d="M1041.41 207.001L1031.04 266.392H1097.27L1111.3 207.001H1041.41Z" fill="#3D3938"/>
  <path d="M1134.59 207.001L1119.35 266.391L1185.58 266.392L1204.48 207.001H1134.59Z" fill="#3D3938"/>
  <path d="M1227.77 207.001L1207.65 266.392H1273.88L1297.66 207.001H1227.77Z" fill="#3D3938"/>
  <path d="M1320.95 207.001L1295.95 266.392H1362.18L1390.84 207.001H1320.95Z" fill="#3D3938"/>
  <path d="M1553.91 207.001L1516.71 266.392H1582.94L1623.8 207.001H1553.91Z" fill="#3D3938"/>
  <path d="M482.319 207.001L501.225 266.392H567.453L552.205 207.001H482.319Z" fill="#3D3938"/>
  <path d="M179.48 207.001H249.368L280.467 266.392H214.239L179.48 207.001Z" fill="#3D3938"/>
  <path d="M199.581 126.623H176.991L166.755 166.163H120.881L131.811 126.623H109.221L86.296 207.001H16.4097L76.2673 14.8682H141.095L130.783 51.0256H152.709L142.416 88.2608H186.923L196.563 51.0256H218.489L227.533 14.8682H292.364L249.368 207.001H179.48L199.581 126.623Z" fill="#D0C5C0"/>
  <path d="M313.97 14.8682H378.798L342.546 207.001H272.66L313.97 14.8682Z" fill="#D0C5C0"/>
  <path d="M594.891 14.8682H746.156L744.728 51.0256H657.022L654.244 88.2608H743.258L741.743 126.623H651.383L648.433 166.163H740.181L738.569 207.001H575.5L594.891 14.8682Z" fill="#D0C5C0"/>
  <path d="M767.766 14.8682H919.031L920.142 51.0256H832.435L831.931 166.163H923.678L924.932 207.001H761.864L767.766 14.8682Z" fill="#D0C5C0"/>
  <path d="M1035.41 126.622H1012.82L1018.11 207.001H948.228L940.641 14.8679L1091.91 14.8681L1099.31 88.2607H1077.06L1078.81 107.298H1101.23L1111.3 207.001H1041.41L1035.41 126.622ZM1007.85 51.0255L1010.3 88.2607H1032.55L1029.77 51.0255H1007.85Z" fill="#D0C5C0"/>
  <path d="M1286.39 14.8682H1437.66L1446.38 51.0256H1358.67L1366.35 88.2608H1455.37L1464.63 126.623H1374.27L1390.84 207.001H1320.95L1286.39 14.8682Z" fill="#D0C5C0"/>
  <path d="M1512.16 51.0256H1468.31L1459.26 14.8682H1610.53L1621.79 51.0256H1577.94L1623.8 207.001H1553.91L1512.16 51.0256Z" fill="#D0C5C0"/>
  <path d="M490.584 146.242H467.821L473.46 107.298H451.04L435.728 207.001H365.842L400.407 14.8682H465.235L459.682 51.0256H481.609L476.217 88.2608H498.471L508.454 14.8682H573.282L552.205 207.001H482.319L490.584 146.242Z" fill="#D0C5C0"/>
  <path d="M1264.78 14.8682H1113.52L1134.59 207.001H1204.48L1196.21 146.242H1218.98L1227.77 207.001H1297.66L1264.78 14.8682ZM1213.83 85.1154H1224.94L1230.22 120.148H1215.2L1213.34 107.298H1190.92L1192.66 120.148H1177.64L1173.08 85.1154H1184.19L1182.93 75.7262H1157.1L1154.03 51.0257H1183.26L1186.2 72.612H1208.31L1205.19 51.0257H1234.42L1238.29 75.7262H1212.46L1213.83 85.1154Z" fill="#D0C5C0"/>
</svg>
