<svg xmlns="http://www.w3.org/2000/svg" viewBox="0 -0.5 104 16" shape-rendering="crispEdges">
  <path stroke="#538153" d="M8 1h4M17 1h3M22 1h4M28 1h4M34 1h4M40 1h4M46 1h8M56 1h9M67 1h9M78 1h8M88 1h11M8 2h1M11 2h1M16 2h1M19 2h1M22 2h1M25 2h1M28 2h1M31 2h1M34 2h1M37 2h1M40 2h1M43 2h1M46 2h1M53 2h1M56 2h1M64 2h1M67 2h1M75 2h1M78 2h1M85 2h1M88 2h1M98 2h1M7 3h1M11 3h1M15 3h1M19 3h1M21 3h1M25 3h1M27 3h1M31 3h1M33 3h1M37 3h1M39 3h1M43 3h1M45 3h1M53 3h1M55 3h1M64 3h1M66 3h1M75 3h1M77 3h1M85 3h1M87 3h1M97 3h1M7 4h1M11 4h1M14 4h1M18 4h1M21 4h1M24 4h1M27 4h1M31 4h1M33 4h1M36 4h1M39 4h1M42 4h1M45 4h1M48 4h5M55 4h1M58 4h3M63 4h1M66 4h1M69 4h3M74 4h1M77 4h1M80 4h5M87 4h4M94 4h4M6 5h1M11 5h1M13 5h1M18 5h1M20 5h1M24 5h1M26 5h1M31 5h2M36 5h1M38 5h1M42 5h1M44 5h1M48 5h1M54 5h1M63 5h1M65 5h1M74 5h1M76 5h1M80 5h1M90 5h1M94 5h1M6 6h1M9 6h1M11 6h2M17 6h1M20 6h1M23 6h1M26 6h1M31 6h2M35 6h1M38 6h1M41 6h1M44 6h1M47 6h1M54 6h1M61 6h2M65 6h1M73 6h1M76 6h1M79 6h3M90 6h1M93 6h1M5 7h1M9 7h1M17 7h1M19 7h1M23 7h1M25 7h1M29 7h1M31 7h1M35 7h1M37 7h1M41 7h1M43 7h1M47 7h1M53 7h1M57 7h1M60 7h1M64 7h1M73 7h1M75 7h1M81 7h1M89 7h1M93 7h1M5 8h1M8 8h2M13 8h1M16 8h1M19 8h1M22 8h1M25 8h1M28 8h2M31 8h1M34 8h1M37 8h1M40 8h1M43 8h1M46 8h1M53 8h1M56 8h2M60 8h1M64 8h1M67 8h3M72 8h1M75 8h1M78 8h4M89 8h1M92 8h1M4 9h1M8 9h1M10 9h3M16 9h1M18 9h1M22 9h1M24 9h1M28 9h2M34 9h1M36 9h1M40 9h1M42 9h1M46 9h1M52 9h1M56 9h2M60 9h1M63 9h1M67 9h1M69 9h1M72 9h1M74 9h1M78 9h1M88 9h1M92 9h1M4 10h1M7 10h1M12 10h1M15 10h1M18 10h1M21 10h1M24 10h1M27 10h1M29 10h1M33 10h1M36 10h1M39 10h1M42 10h1M45 10h5M52 10h1M55 10h1M57 10h1M60 10h1M63 10h1M66 10h1M68 10h1M71 10h1M74 10h1M77 10h1M88 10h1M91 10h1M3 11h1M7 11h1M11 11h1M15 11h1M17 11h1M21 11h1M23 11h1M27 11h1M29 11h1M33 11h1M35 11h1M39 11h1M41 11h1M49 11h1M51 11h1M55 11h1M57 11h1M60 11h1M62 11h1M66 11h2M71 11h1M73 11h1M77 11h1M87 11h1M91 11h1M3 12h1M6 12h1M11 12h1M14 12h1M17 12h1M20 12h1M23 12h1M26 12h1M29 12h1M32 12h1M35 12h1M38 12h1M41 12h1M48 12h1M51 12h1M54 12h1M57 12h1M60 12h1M62 12h1M65 12h1M67 12h1M70 12h1M73 12h1M76 12h1M87 12h1M90 12h1M3 13h4M11 13h4M17 13h4M23 13h4M29 13h4M35 13h4M41 13h8M51 13h4M57 13h4M62 13h4M67 13h4M73 13h4M87 13h4" />
  <path stroke="#e5e589" d="M9 2h2M17 2h2M23 2h2M29 2h2M35 2h2M41 2h2M47 2h6M57 2h7M68 2h7M79 2h6M89 2h9M8 3h3M16 3h3M22 3h3M28 3h3M34 3h3M40 3h3M46 3h7M56 3h8M67 3h8M78 3h7M88 3h9M8 4h3M15 4h3M22 4h2M28 4h3M34 4h2M40 4h2M46 4h2M56 4h2M61 4h2M67 4h2M72 4h2M78 4h2M91 4h3M7 5h4M14 5h4M21 5h3M27 5h4M33 5h3M39 5h3M45 5h3M55 5h8M66 5h8M77 5h3M91 5h3M7 6h2M10 6h1M13 6h4M21 6h2M27 6h4M33 6h2M39 6h2M45 6h2M55 6h6M66 6h7M77 6h2M91 6h2M6 7h3M10 7h7M20 7h3M26 7h3M30 7h1M32 7h3M38 7h3M44 7h3M54 7h3M58 7h2M65 7h8M76 7h5M90 7h3M6 8h2M10 8h3M14 8h2M20 8h2M26 8h2M30 8h1M32 8h2M38 8h2M44 8h2M54 8h2M58 8h2M65 8h2M70 8h2M76 8h2M90 8h2M5 9h3M13 9h3M19 9h3M25 9h3M30 9h4M37 9h3M43 9h3M53 9h3M58 9h2M64 9h3M70 9h2M75 9h3M89 9h3M5 10h2M13 10h2M19 10h2M25 10h2M30 10h3M37 10h2M43 10h2M53 10h2M58 10h2M64 10h2M69 10h2M75 10h2M89 10h2M4 11h3M12 11h3M18 11h3M24 11h3M30 11h3M36 11h3M42 11h7M52 11h3M58 11h2M63 11h3M68 11h3M74 11h3M88 11h3M4 12h2M12 12h2M18 12h2M24 12h2M30 12h2M36 12h2M42 12h6M52 12h2M58 12h2M63 12h2M68 12h2M74 12h2M88 12h2" />
  <path stroke="#172e17" d="M12 3h1M20 3h1M26 3h1M32 3h1M38 3h1M44 3h1M54 3h1M65 3h1M76 3h1M86 3h1M98 3h2M12 4h1M19 4h2M25 4h2M32 4h1M37 4h2M43 4h2M53 4h2M64 4h2M75 4h2M85 4h2M98 4h2M12 5h1M19 5h1M25 5h1M37 5h1M43 5h1M49 5h5M64 5h1M75 5h1M81 5h9M95 5h4M18 6h2M24 6h2M36 6h2M42 6h2M48 6h6M63 6h2M74 6h2M82 6h4M88 6h2M94 6h5M18 7h1M24 7h1M36 7h1M42 7h1M48 7h2M61 7h3M74 7h1M94 7h2M17 8h2M23 8h2M35 8h2M41 8h2M47 8h2M61 8h3M73 8h2M82 8h1M93 8h2M9 9h1M17 9h1M23 9h1M35 9h1M41 9h1M47 9h2M61 9h1M73 9h1M79 9h4M93 9h2M8 10h4M16 10h2M22 10h2M28 10h1M34 10h2M40 10h2M56 10h1M61 10h1M72 10h2M78 10h5M92 10h2M8 11h2M16 11h1M22 11h1M28 11h1M34 11h1M40 11h1M56 11h1M61 11h1M72 11h1M78 11h2M92 11h2M7 12h2M15 12h2M21 12h2M27 12h2M33 12h2M39 12h2M49 12h2M55 12h2M61 12h1M66 12h1M71 12h2M77 12h2M91 12h2M7 13h2M15 13h2M21 13h2M27 13h2M33 13h2M39 13h2M49 13h2M55 13h2M61 13h1M66 13h1M71 13h2M77 13h2M91 13h2M3 14h5M11 14h5M17 14h5M23 14h5M29 14h5M35 14h5M41 14h9M51 14h5M57 14h15M73 14h5M87 14h5M4 15h4M12 15h4M18 15h4M24 15h4M30 15h4M36 15h14M52 15h4M58 15h4M63 15h4M68 15h4M74 15h4M88 15h4" />
</svg>