<svg xmlns="http://www.w3.org/2000/svg" viewBox="0 -0.5 104 16" shape-rendering="crispEdges">
  <path d="M8 1h4M17 1h3M22 1h4M28 1h4M34 1h4M40 1h4M46 1h8M56 1h9M67 1h9M78 1h8M88 1h11M8 2h1M28 2h1M56 2h1M78 2h1M98 2h1M97 3h1M14 4h1M48 4h5M58 4h3M69 4h3M80 4h5M87 4h4M94 4h4M13 5h1M48 5h1M80 5h1M94 5h1M11 6h2M61 6h2M79 6h3M81 7h1M8 8h2M13 8h1M67 8h3M78 8h4M8 9h1M10 9h3M67 9h1M69 9h1M78 9h1M12 10h1M45 10h5M66 10h1M68 10h1M49 11h1M66 11h2M6 12h1M14 12h1M20 12h1M26 12h1M32 12h1M38 12h1M48 12h1M54 12h1M65 12h1M67 12h1M70 12h1M76 12h1M90 12h1M3 13h4M11 13h4M17 13h4M23 13h4M29 13h4M35 13h4M41 13h8M51 13h4M57 13h4M62 13h4M67 13h4M73 13h4M87 13h4" stroke="#538153" />
  <path d="M9 2h2M17 2h2M23 2h2M29 2h2M35 2h2M41 2h2M47 2h6M57 2h7M68 2h7M79 2h6M89 2h9M16 3h3M22 3h3M34 3h3M40 3h3M46 3h7M56 3h8M67 3h8M78 3h7M88 3h9M15 4h3M22 4h2M34 4h2M40 4h2M46 4h2M56 4h2M61 4h2M67 4h2M72 4h2M78 4h2M7 5h4M14 5h4M21 5h3M33 5h3M39 5h3M45 5h3M55 5h8M66 5h8M77 5h3M7 6h2M10 6h1M13 6h4M21 6h2M33 6h2M39 6h2M45 6h2M55 6h6M66 6h7M77 6h2M91 6h2M6 7h3M10 7h7M20 7h3M26 7h3M32 7h3M38 7h3M44 7h3M54 7h3M65 7h8M76 7h5M90 7h3M6 8h2M10 8h3M14 8h2M20 8h2M26 8h2M32 8h2M38 8h2M44 8h2M54 8h2M65 8h2M76 8h2M90 8h2M5 9h3M13 9h3M19 9h3M25 9h3M30 9h4M37 9h3M43 9h3M53 9h3M64 9h3M75 9h3M89 9h3M5 10h2M13 10h2M19 10h2M25 10h2M37 10h2M43 10h2M53 10h2M64 10h2M69 10h2M75 10h2M89 10h2M4 11h3M12 11h3M18 11h3M24 11h3M36 11h3M42 11h7M52 11h3M63 11h3M68 11h3M74 11h3M88 11h3M4 12h2M12 12h2M18 12h2M24 12h2M30 12h2M36 12h2M42 12h6M52 12h2M63 12h2M68 12h2M74 12h2M88 12h2" stroke="#e5e589" />
  <path d="M11 1.5h1v4H11M16 1.5h1v2H16M19 1.5h1v2H19M22 1.5h1v2H22M25 1.5h1v2H25M31 1.5h1v3H31M34 1.5h1v2H34M37 1.5h1v2H37M40 1.5h1v2H40M43 1.5h1v2H43M46 1.5h1v2H46M53 1.5h1v2H53M64 1.5h1v2H64M67 1.5h1v2H67M75 1.5h1v2H75M85 1.5h1v2H85M88 1.5h1v2H88M7 2.5h1v2H7M15 2.5h1v2H15M19 2.5h1v2H19M21 2.5h1v2H21M25 2.5h1v2H25M27 2.5h1v2H27M33 2.5h1v2H33M37 2.5h1v2H37M39 2.5h1v2H39M43 2.5h1v2H43M45 2.5h1v2H45M53 2.5h1v2H53M55 2.5h1v2H55M64 2.5h1v2H64M66 2.5h1v2H66M75 2.5h1v2H75M77 2.5h1v2H77M87 2.5h1v2H87M7 3.5h1v2H7M18 3.5h1v2H18M21 3.5h1v2H21M24 3.5h1v2H24M27 3.5h1v2H27M31 3.5h1v2H31M33 3.5h1v2H33M36 3.5h1v2H36M39 3.5h1v2H39M42 3.5h1v2H42M55 3.5h1v2H55M63 3.5h1v2H63M74 3.5h1v2H74M77 3.5h1v2H77M6 4.5h1v2H6M11 4.5h1v2H11M18 4.5h1v2H18M20 4.5h1v2H20M24 4.5h1v2H24M26 4.5h1v2H26M31 4.5h2v2H31M36 4.5h1v2H36M38 4.5h1v2H38M42 4.5h1v2H42M44 4.5h1v2H44M54 4.5h1v2H54M63 4.5h1v2H63M65 4.5h1v2H65M74 4.5h1v2H74M76 4.5h1v2H76M90 4.5h1v2H90M9 5.5h1v2H9M17 5.5h1v2H17M23 5.5h1v2H23M35 5.5h1v2H35M41 5.5h1v2H41M47 5.5h1v2H47M73 5.5h1v2H73M93 5.5h1v2H93M5 6.5h1v2H5M17 6.5h1v2H17M19 6.5h1v2H19M23 6.5h1v2H23M25 6.5h1v2H25M29 6.5h1v3H29M31 6.5h1v2H31M35 6.5h1v2H35M37 6.5h1v2H37M41 6.5h1v2H41M43 6.5h1v2H43M53 6.5h1v2H53M57 6.5h1v3H57M60 6.5h1v6H60M64 6.5h1v2H64M73 6.5h1v2H73M75 6.5h1v2H75M89 6.5h1v2H89M16 7.5h1v2H16M22 7.5h1v2H22M28 7.5h2v2H28M34 7.5h1v2H34M40 7.5h1v2H40M46 7.5h1v2H46M56 7.5h2v2H56M72 7.5h1v2H72M92 7.5h1v2H92M4 8.5h1v2H4M18 8.5h1v2H18M24 8.5h1v2H24M36 8.5h1v2H36M42 8.5h1v2H42M52 8.5h1v2H52M63 8.5h1v2H63M74 8.5h1v2H74M88 8.5h1v2H88M7 9.5h1v2H7M15 9.5h1v2H15M21 9.5h1v2H21M27 9.5h1v2H27M29 9.5h1v3H29M33 9.5h1v2H33M39 9.5h1v2H39M55 9.5h1v2H55M57 9.5h1v3H57M71 9.5h1v2H71M77 9.5h1v2H77M91 9.5h1v2H91M3 10.5h1v2H3M11 10.5h1v2H11M17 10.5h1v2H17M23 10.5h1v2H23M35 10.5h1v2H35M41 10.5h1v2H41M51 10.5h1v2H51M62 10.5h1v2H62M73 10.5h1v2H73M87 10.5h1v2H87" fill="#538153" />
  <path d="M8 2.5h3v2H8M28 2.5h3v2H28M91 3.5h3v2H91M27 4.5h4v2H27M30 6.5h1v2H30M58 6.5h2v6H58M70 7.5h2v2H70M30 9.5h3v2H30" fill="#e5e589" />
  <path d="M12 2.5h1v3H12M32 2.5h1v2H32M98 2.5h2v2H98M61 6.5h3v2H61M47 7.5h2v2H47M93 7.5h2v2H93M61 8.5h1v5H61M28 9.5h1v2H28M56 9.5h1v2H56M92 9.5h2v2H92M7 11.5h2v2H7M15 11.5h2v2H15M21 11.5h2v2H21M27 11.5h2v2H27M33 11.5h2v2H33M39 11.5h2v2H39M49 11.5h2v2H49M55 11.5h2v2H55M66 11.5h1v2H66M71 11.5h2v2H71M77 11.5h2v2H77M91 11.5h2v2H91" fill="#172e17" />
  <path d="M20 3h1M26 3h1M38 3h1M44 3h1M54 3h1M65 3h1M76 3h1M86 3h1M19 4h2M25 4h2M37 4h2M43 4h2M53 4h2M64 4h2M75 4h2M85 4h2M19 5h1M25 5h1M37 5h1M43 5h1M49 5h5M64 5h1M75 5h1M81 5h9M95 5h4M18 6h2M24 6h2M36 6h2M42 6h2M48 6h6M63 6h2M74 6h2M82 6h4M88 6h2M94 6h5M18 7h1M24 7h1M36 7h1M42 7h1M48 7h2M74 7h1M94 7h2M17 8h2M23 8h2M35 8h2M41 8h2M73 8h2M82 8h1M9 9h1M17 9h1M23 9h1M35 9h1M41 9h1M73 9h1M79 9h4M8 10h4M16 10h2M22 10h2M34 10h2M40 10h2M72 10h2M78 10h5M8 11h2M16 11h1M22 11h1M34 11h1M40 11h1M72 11h1M78 11h2M3 14h5M11 14h5M17 14h5M23 14h5M29 14h5M35 14h5M41 14h9M51 14h5M57 14h15M73 14h5M87 14h5M4 15h4M12 15h4M18 15h4M24 15h4M30 15h4M36 15h14M52 15h4M58 15h4M63 15h4M68 15h4M74 15h4M88 15h4" stroke="#172e17" />
</svg>