<svg xmlns="http://www.w3.org/2000/svg" viewBox="0 -0.5 120 16" shape-rendering="crispEdges">
  <path stroke="#538153" d="M9 1h4M18 1h3M23 1h4M29 1h4M35 1h4M41 1h4M47 1h8M57 1h9M68 1h9M79 1h8M89 1h11M9 2h1M12 2h1M17 2h1M20 2h1M23 2h1M26 2h1M29 2h1M32 2h1M35 2h1M38 2h1M41 2h1M44 2h1M47 2h1M54 2h1M57 2h1M65 2h1M68 2h1M76 2h1M79 2h1M86 2h1M89 2h1M99 2h1M8 3h1M12 3h1M16 3h1M20 3h1M22 3h1M26 3h1M28 3h1M32 3h1M34 3h1M38 3h1M40 3h1M44 3h1M46 3h1M54 3h1M56 3h1M65 3h1M67 3h1M76 3h1M78 3h1M86 3h1M88 3h1M98 3h1M109 3h4M8 4h1M12 4h1M15 4h1M19 4h1M22 4h1M25 4h1M28 4h1M32 4h1M34 4h1M37 4h1M40 4h1M43 4h1M46 4h1M49 4h5M56 4h1M59 4h3M64 4h1M67 4h1M70 4h3M75 4h1M78 4h1M81 4h5M88 4h4M95 4h4M109 4h1M112 4h1M7 5h1M12 5h1M14 5h1M19 5h1M21 5h1M25 5h1M27 5h1M32 5h2M37 5h1M39 5h1M43 5h1M45 5h1M49 5h1M55 5h1M64 5h1M66 5h1M75 5h1M77 5h1M81 5h1M91 5h1M95 5h1M109 5h1M112 5h1M7 6h1M10 6h1M12 6h2M18 6h1M21 6h1M24 6h1M27 6h1M32 6h2M36 6h1M39 6h1M42 6h1M45 6h1M48 6h1M55 6h1M62 6h2M66 6h1M74 6h1M77 6h1M80 6h3M91 6h1M94 6h1M106 6h4M112 6h4M6 7h1M10 7h1M18 7h1M20 7h1M24 7h1M26 7h1M30 7h1M32 7h1M36 7h1M38 7h1M42 7h1M44 7h1M48 7h1M54 7h1M58 7h1M61 7h1M65 7h1M74 7h1M76 7h1M82 7h1M90 7h1M94 7h1M106 7h1M115 7h1M6 8h1M9 8h2M14 8h1M17 8h1M20 8h1M23 8h1M26 8h1M29 8h2M32 8h1M35 8h1M38 8h1M41 8h1M44 8h1M47 8h1M54 8h1M57 8h2M61 8h1M65 8h1M68 8h3M73 8h1M76 8h1M79 8h4M90 8h1M93 8h1M106 8h1M115 8h1M5 9h1M9 9h1M11 9h3M17 9h1M19 9h1M23 9h1M25 9h1M29 9h2M35 9h1M37 9h1M41 9h1M43 9h1M47 9h1M53 9h1M57 9h2M61 9h1M64 9h1M68 9h1M70 9h1M73 9h1M75 9h1M79 9h1M89 9h1M93 9h1M106 9h4M112 9h4M5 10h1M8 10h1M13 10h1M16 10h1M19 10h1M22 10h1M25 10h1M28 10h1M30 10h1M34 10h1M37 10h1M40 10h1M43 10h1M46 10h5M53 10h1M56 10h1M58 10h1M61 10h1M64 10h1M67 10h1M69 10h1M72 10h1M75 10h1M78 10h1M89 10h1M92 10h1M109 10h1M112 10h1M4 11h1M8 11h1M12 11h1M16 11h1M18 11h1M22 11h1M24 11h1M28 11h1M30 11h1M34 11h1M36 11h1M40 11h1M42 11h1M50 11h1M52 11h1M56 11h1M58 11h1M61 11h1M63 11h1M67 11h2M72 11h1M74 11h1M78 11h1M88 11h1M92 11h1M109 11h1M112 11h1M4 12h1M7 12h1M12 12h1M15 12h1M18 12h1M21 12h1M24 12h1M27 12h1M30 12h1M33 12h1M36 12h1M39 12h1M42 12h1M49 12h1M52 12h1M55 12h1M58 12h1M61 12h1M63 12h1M66 12h1M68 12h1M71 12h1M74 12h1M77 12h1M88 12h1M91 12h1M109 12h4M4 13h4M12 13h4M18 13h4M24 13h4M30 13h4M36 13h4M42 13h8M52 13h4M58 13h4M63 13h4M68 13h4M74 13h4M88 13h4" />
  <path stroke="#e5e589" d="M10 2h2M18 2h2M24 2h2M30 2h2M36 2h2M42 2h2M48 2h6M58 2h7M69 2h7M80 2h6M90 2h9M9 3h3M17 3h3M23 3h3M29 3h3M35 3h3M41 3h3M47 3h7M57 3h8M68 3h8M79 3h7M89 3h9M9 4h3M16 4h3M23 4h2M29 4h3M35 4h2M41 4h2M47 4h2M57 4h2M62 4h2M68 4h2M73 4h2M79 4h2M92 4h3M110 4h2M8 5h4M15 5h4M22 5h3M28 5h4M34 5h3M40 5h3M46 5h3M56 5h8M67 5h8M78 5h3M92 5h3M110 5h2M8 6h2M11 6h1M14 6h4M22 6h2M28 6h4M34 6h2M40 6h2M46 6h2M56 6h6M67 6h7M78 6h2M92 6h2M110 6h2M7 7h3M11 7h7M21 7h3M27 7h3M31 7h1M33 7h3M39 7h3M45 7h3M55 7h3M59 7h2M66 7h8M77 7h5M91 7h3M107 7h8M7 8h2M11 8h3M15 8h2M21 8h2M27 8h2M31 8h1M33 8h2M39 8h2M45 8h2M55 8h2M59 8h2M66 8h2M71 8h2M77 8h2M91 8h2M107 8h8M6 9h3M14 9h3M20 9h3M26 9h3M31 9h4M38 9h3M44 9h3M54 9h3M59 9h2M65 9h3M71 9h2M76 9h3M90 9h3M110 9h2M6 10h2M14 10h2M20 10h2M26 10h2M31 10h3M38 10h2M44 10h2M54 10h2M59 10h2M65 10h2M70 10h2M76 10h2M90 10h2M110 10h2M5 11h3M13 11h3M19 11h3M25 11h3M31 11h3M37 11h3M43 11h7M53 11h3M59 11h2M64 11h3M69 11h3M75 11h3M89 11h3M110 11h2M5 12h2M13 12h2M19 12h2M25 12h2M31 12h2M37 12h2M43 12h6M53 12h2M59 12h2M64 12h2M69 12h2M75 12h2M89 12h2" />
  <path stroke="#172e17" d="M108 2h6M13 3h1M21 3h1M27 3h1M33 3h1M39 3h1M45 3h1M55 3h1M66 3h1M77 3h1M87 3h1M99 3h2M108 3h1M113 3h1M13 4h1M20 4h2M26 4h2M33 4h1M38 4h2M44 4h2M54 4h2M65 4h2M76 4h2M86 4h2M99 4h2M108 4h1M113 4h1M13 5h1M20 5h1M26 5h1M38 5h1M44 5h1M50 5h5M65 5h1M76 5h1M82 5h9M96 5h4M105 5h4M113 5h4M19 6h2M25 6h2M37 6h2M43 6h2M49 6h6M64 6h2M75 6h2M83 6h4M89 6h2M95 6h5M105 6h1M116 6h1M19 7h1M25 7h1M37 7h1M43 7h1M49 7h2M62 7h3M75 7h1M95 7h2M105 7h1M116 7h1M18 8h2M24 8h2M36 8h2M42 8h2M48 8h2M62 8h3M74 8h2M83 8h1M94 8h2M105 8h1M116 8h1M10 9h1M18 9h1M24 9h1M36 9h1M42 9h1M48 9h2M62 9h1M74 9h1M80 9h4M94 9h2M105 9h1M116 9h1M9 10h4M17 10h2M23 10h2M29 10h1M35 10h2M41 10h2M57 10h1M62 10h1M73 10h2M79 10h5M93 10h2M105 10h4M113 10h4M9 11h2M17 11h1M23 11h1M29 11h1M35 11h1M41 11h1M57 11h1M62 11h1M73 11h1M79 11h2M93 11h2M108 11h1M113 11h1M8 12h2M16 12h2M22 12h2M28 12h2M34 12h2M40 12h2M50 12h2M56 12h2M62 12h1M67 12h1M72 12h2M78 12h2M92 12h2M108 12h1M113 12h1M8 13h2M16 13h2M22 13h2M28 13h2M34 13h2M40 13h2M50 13h2M56 13h2M62 13h1M67 13h1M72 13h2M78 13h2M92 13h2M108 13h6M4 14h5M12 14h5M18 14h5M24 14h5M30 14h5M36 14h5M42 14h9M52 14h5M58 14h15M74 14h5M88 14h5M5 15h4M13 15h4M19 15h4M25 15h4M31 15h4M37 15h14M53 15h4M59 15h4M64 15h4M69 15h4M75 15h4M89 15h4" />
</svg>