<svg xmlns="http://www.w3.org/2000/svg" viewBox="0 -0.5 112 16" shape-rendering="crispEdges">
  <path stroke="#538153" d="M4 1h4M10 1h4M16 1h4M22 1h4M28 1h4M34 1h11M46 1h4M52 1h3M57 1h8M67 1h9M78 1h9M89 1h8M99 1h11M4 2h1M7 2h1M10 2h1M13 2h1M16 2h1M19 2h1M22 2h1M25 2h1M28 2h1M31 2h1M34 2h1M44 2h1M46 2h1M49 2h1M51 2h1M54 2h1M57 2h1M64 2h1M67 2h1M75 2h1M78 2h1M86 2h1M89 2h1M96 2h1M99 2h1M109 2h1M3 3h1M7 3h1M9 3h1M13 3h1M15 3h1M19 3h1M21 3h1M25 3h1M27 3h1M31 3h1M33 3h1M43 3h1M46 3h1M49 3h2M54 3h1M56 3h1M64 3h1M66 3h1M75 3h1M77 3h1M86 3h1M88 3h1M96 3h1M98 3h1M108 3h1M3 4h1M6 4h1M9 4h1M12 4h1M15 4h1M19 4h1M21 4h1M24 4h1M27 4h1M30 4h1M33 4h4M40 4h4M46 4h1M49 4h1M53 4h1M56 4h1M59 4h5M66 4h1M69 4h3M74 4h1M77 4h1M80 4h3M85 4h1M88 4h1M91 4h5M98 4h4M105 4h4M2 5h1M6 5h1M8 5h1M12 5h1M14 5h1M19 5h2M24 5h1M26 5h1M30 5h1M36 5h1M40 5h1M46 5h1M52 5h1M55 5h1M59 5h1M65 5h1M74 5h1M76 5h1M85 5h1M87 5h1M91 5h1M101 5h1M105 5h1M2 6h1M5 6h1M8 6h1M11 6h1M14 6h1M19 6h2M23 6h1M26 6h1M29 6h1M36 6h1M39 6h1M46 6h1M51 6h1M55 6h1M58 6h1M65 6h1M72 6h2M76 6h1M84 6h1M87 6h1M90 6h3M101 6h1M104 6h1M1 7h1M5 7h1M7 7h1M11 7h1M13 7h1M17 7h1M19 7h1M23 7h1M25 7h1M29 7h1M35 7h1M39 7h1M46 7h1M50 7h1M54 7h1M58 7h1M64 7h1M68 7h1M71 7h1M75 7h1M84 7h1M86 7h1M92 7h1M100 7h1M104 7h1M1 8h1M4 8h1M7 8h1M10 8h1M13 8h1M16 8h2M19 8h1M22 8h1M25 8h1M28 8h1M35 8h1M38 8h1M46 8h1M49 8h1M54 8h1M57 8h1M64 8h1M67 8h2M71 8h1M75 8h1M78 8h2M83 8h1M86 8h1M89 8h4M100 8h1M103 8h1M0 9h1M4 9h1M6 9h1M10 9h1M12 9h1M16 9h2M22 9h1M24 9h1M28 9h1M34 9h1M38 9h1M45 9h1M49 9h1M53 9h1M57 9h1M63 9h1M67 9h2M71 9h1M74 9h1M78 9h2M83 9h1M85 9h1M89 9h1M99 9h1M103 9h1M0 10h1M4 10h2M9 10h1M12 10h1M15 10h1M17 10h1M21 10h1M24 10h1M27 10h1M34 10h1M37 10h1M45 10h1M48 10h1M53 10h1M56 10h5M63 10h1M66 10h1M68 10h1M71 10h1M74 10h1M77 10h1M79 10h1M82 10h1M85 10h1M88 10h1M99 10h1M102 10h1M0 11h1M8 11h1M11 11h1M15 11h1M17 11h1M21 11h1M23 11h1M27 11h1M33 11h1M37 11h1M44 11h1M48 11h1M52 11h1M60 11h1M62 11h1M66 11h1M68 11h1M71 11h1M73 11h1M77 11h2M82 11h1M84 11h1M88 11h1M98 11h1M102 11h1M1 12h1M6 12h2M11 12h1M14 12h1M17 12h1M20 12h1M23 12h1M26 12h1M33 12h1M36 12h1M44 12h1M47 12h1M52 12h1M59 12h1M62 12h1M65 12h1M68 12h1M71 12h1M73 12h1M76 12h1M78 12h1M81 12h1M84 12h1M87 12h1M98 12h1M101 12h1M2 13h4M11 13h4M17 13h4M23 13h4M33 13h4M44 13h4M52 13h8M62 13h4M68 13h4M73 13h4M78 13h4M84 13h4M98 13h4" />
  <path stroke="#e5e589" d="M5 2h2M11 2h2M17 2h2M23 2h2M29 2h2M35 2h9M47 2h2M52 2h2M58 2h6M68 2h7M79 2h7M90 2h6M100 2h9M4 3h3M10 3h3M16 3h3M22 3h3M28 3h3M34 3h9M47 3h2M51 3h3M57 3h7M67 3h8M78 3h8M89 3h7M99 3h9M4 4h2M10 4h2M16 4h3M22 4h2M28 4h2M37 4h3M47 4h2M50 4h3M57 4h2M67 4h2M72 4h2M78 4h2M83 4h2M89 4h2M102 4h3M3 5h3M9 5h3M15 5h4M21 5h3M27 5h3M37 5h3M47 5h5M56 5h3M66 5h8M77 5h8M88 5h3M102 5h3M3 6h2M9 6h2M15 6h4M21 6h2M27 6h2M37 6h2M47 6h4M56 6h2M66 6h6M77 6h7M88 6h2M102 6h2M2 7h3M8 7h3M14 7h3M18 7h1M20 7h3M26 7h3M36 7h3M47 7h3M55 7h3M65 7h3M69 7h2M76 7h8M87 7h5M101 7h3M2 8h2M8 8h2M14 8h2M18 8h1M20 8h2M26 8h2M36 8h2M47 8h2M55 8h2M65 8h2M69 8h2M76 8h2M80 8h3M87 8h2M101 8h2M1 9h3M7 9h3M13 9h3M18 9h4M25 9h3M35 9h3M46 9h3M54 9h3M64 9h3M69 9h2M75 9h3M80 9h3M86 9h3M100 9h3M1 10h3M6 10h3M13 10h2M18 10h3M25 10h2M35 10h2M46 10h2M54 10h2M64 10h2M69 10h2M75 10h2M80 10h2M86 10h2M100 10h2M1 11h7M12 11h3M18 11h3M24 11h3M34 11h3M45 11h3M53 11h7M63 11h3M69 11h2M74 11h3M79 11h3M85 11h3M99 11h3M2 12h4M12 12h2M18 12h2M24 12h2M34 12h2M45 12h2M53 12h6M63 12h2M69 12h2M74 12h2M79 12h2M85 12h2M99 12h2" />
  <path stroke="#1c334a" d="M8 3h1M14 3h1M20 3h1M26 3h1M32 3h1M44 3h2M65 3h1M76 3h1M87 3h1M97 3h1M109 3h2M7 4h2M13 4h2M20 4h1M25 4h2M31 4h2M44 4h2M54 4h2M64 4h2M75 4h2M86 4h2M96 4h2M109 4h2M7 5h1M13 5h1M25 5h1M31 5h5M41 5h4M53 5h2M60 5h5M75 5h1M86 5h1M92 5h9M106 5h4M6 6h2M12 6h2M24 6h2M30 6h2M34 6h2M40 6h5M52 6h3M59 6h6M74 6h2M85 6h2M93 6h4M99 6h2M105 6h5M6 7h1M12 7h1M24 7h1M30 7h2M40 7h2M51 7h3M59 7h2M72 7h3M85 7h1M105 7h2M5 8h2M11 8h2M23 8h2M29 8h2M39 8h2M50 8h3M58 8h2M72 8h3M84 8h2M93 8h1M104 8h2M5 9h1M11 9h1M23 9h1M29 9h2M39 9h2M50 9h2M58 9h2M72 9h1M84 9h1M90 9h4M104 9h2M10 10h2M16 10h1M22 10h2M28 10h2M38 10h2M49 10h2M67 10h1M72 10h1M83 10h2M89 10h5M103 10h2M9 11h2M16 11h1M22 11h1M28 11h2M38 11h2M49 11h2M67 11h1M72 11h1M83 11h1M89 11h2M103 11h2M0 12h1M8 12h3M15 12h2M21 12h2M27 12h2M37 12h2M48 12h2M60 12h2M66 12h2M72 12h1M77 12h1M82 12h2M88 12h2M102 12h2M1 13h1M6 13h4M15 13h2M21 13h2M27 13h2M37 13h2M48 13h2M60 13h2M66 13h2M72 13h1M77 13h1M82 13h2M88 13h2M102 13h2M2 14h7M11 14h5M17 14h5M23 14h5M33 14h5M44 14h5M52 14h9M62 14h5M68 14h15M84 14h5M98 14h5M3 15h4M12 15h4M18 15h4M24 15h4M34 15h4M45 15h4M53 15h8M63 15h4M69 15h4M74 15h4M79 15h4M85 15h4M99 15h4" />
</svg>