<svg xmlns="http://www.w3.org/2000/svg" width="18" height="16" viewBox="0 0 18 16" fill="none">
  <path fill-rule="evenodd" clip-rule="evenodd" d="M8.50431 0.290909C8.72462 -0.0969694 9.27538 -0.09697 9.49569 0.290909L17.9225 15.1273C18.1428 15.5152 17.8674 16 17.4268 16H0.573231C0.132615 16 -0.14277 15.5152 0.0775377 15.1273L8.50431 0.290909ZM9.5426 11H8.4574L8 5H10L9.5426 11ZM9 14C9.55229 14 10 13.5523 10 13C10 12.4477 9.55229 12 9 12C8.44771 12 8 12.4477 8 13C8 13.5523 8.44771 14 9 14Z" fill="fill"/>
</svg>